<svg width="35" height="35" viewBox="0 0 35 35" fill="none" xmlns="http://www.w3.org/2000/svg">
<path d="M33.6988 13.8863C32.8218 11.4059 31.0963 9.31541 28.8271 7.98426C26.5578 6.6531 23.8911 6.167 21.2982 6.61188C18.7052 7.05676 16.353 8.40397 14.6573 10.4154C12.9616 12.4268 12.0315 14.973 12.0315 17.6038C12.0315 20.2346 12.9616 22.7808 14.6573 24.7922C16.353 26.8037 18.7052 28.1509 21.2982 28.5957C23.8911 29.0406 26.5578 28.5545 28.8271 27.2234C31.0963 25.8922 32.8218 23.8017 33.6988 21.3213H34.3326V32.4739C34.3326 32.9668 34.1368 33.4396 33.7882 33.7882C33.4396 34.1368 32.9668 34.3326 32.4739 34.3326H2.73376C2.24078 34.3326 1.768 34.1368 1.41942 33.7882C1.07083 33.4396 0.875 32.9668 0.875 32.4739V2.73376C0.875 2.24078 1.07083 1.768 1.41942 1.41942C1.768 1.07083 2.24078 0.875 2.73376 0.875H32.4739C32.9668 0.875 33.4396 1.07083 33.7882 1.41942C34.1368 1.768 34.3326 2.24078 34.3326 2.73376V13.8863H33.6988ZM4.59251 6.45127V12.0275H8.31003V6.45127H4.59251ZM23.1801 25.0388C21.2082 25.0388 19.3171 24.2555 17.9227 22.8612C16.5284 21.4668 15.7451 19.5757 15.7451 17.6038C15.7451 15.6319 16.5284 13.7408 17.9227 12.3465C19.3171 10.9521 21.2082 10.1688 23.1801 10.1688C25.152 10.1688 27.0431 10.9521 28.4374 12.3465C29.8318 13.7408 30.6151 15.6319 30.6151 17.6038C30.6151 19.5757 29.8318 21.4668 28.4374 22.8612C27.0431 24.2555 25.152 25.0388 23.1801 25.0388ZM23.1801 21.3213C24.166 21.3213 25.1116 20.9297 25.8088 20.2325C26.5059 19.5353 26.8976 18.5898 26.8976 17.6038C26.8976 16.6179 26.5059 15.6723 25.8088 14.9751C25.1116 14.278 24.166 13.8863 23.1801 13.8863C22.1941 13.8863 21.2486 14.278 20.5514 14.9751C19.8542 15.6723 19.4626 16.6179 19.4626 17.6038C19.4626 18.5898 19.8542 19.5353 20.5514 20.2325C21.2486 20.9297 22.1941 21.3213 23.1801 21.3213Z" fill="white"/>
</svg>
