<svg width="28" height="34" viewBox="0 0 28 34" fill="none" xmlns="http://www.w3.org/2000/svg">
<path d="M4.66665 15.6104L25.9646 1.4125C26.1214 1.30812 26.3037 1.24823 26.4919 1.23923C26.6801 1.23023 26.8672 1.27244 27.0333 1.36138C27.1994 1.45031 27.3383 1.58263 27.4352 1.74426C27.532 1.90588 27.5832 2.09075 27.5833 2.27917L27.5833 31.7208C27.5832 31.9093 27.532 32.0941 27.4352 32.2557C27.3383 32.4174 27.1994 32.5497 27.0333 32.6386C26.8672 32.7276 26.6801 32.7698 26.4919 32.7608C26.3037 32.7518 26.1214 32.6919 25.9646 32.5875L4.66665 18.3896L4.66665 31.5833C4.66665 32.1359 4.44716 32.6658 4.05645 33.0565C3.66575 33.4472 3.13585 33.6667 2.58331 33.6667C2.03078 33.6667 1.50087 33.4472 1.11017 33.0565C0.719473 32.6658 0.499981 32.1359 0.499981 31.5833L0.499981 2.41667C0.499981 1.86413 0.719473 1.33423 1.11017 0.943529C1.50087 0.552828 2.03078 0.333336 2.58331 0.333336C3.13585 0.333336 3.66575 0.552828 4.05645 0.943529C4.44716 1.33423 4.66665 1.86413 4.66665 2.41667V15.6104ZM23.4166 25.8813L23.4166 8.11875L10.0958 17L23.4166 25.8813Z" fill="white"/>
</svg>
