<svg width="28" height="34" viewBox="0 0 28 34" fill="none" xmlns="http://www.w3.org/2000/svg">
<path d="M23.3334 18.3896L2.03544 32.5875C1.87857 32.6919 1.69633 32.7518 1.50813 32.7608C1.31992 32.7698 1.1328 32.7276 0.966686 32.6386C0.800574 32.5497 0.661696 32.4174 0.564841 32.2557C0.467987 32.0941 0.416784 31.9093 0.416687 31.7208V2.27916C0.416784 2.09074 0.467987 1.90587 0.564841 1.74425C0.661696 1.58263 0.800574 1.4503 0.966686 1.36137C1.1328 1.27243 1.31992 1.23022 1.50813 1.23922C1.69633 1.24823 1.87857 1.30811 2.03544 1.4125L23.3334 15.6104V2.41666C23.3334 1.86413 23.5528 1.33422 23.9435 0.943523C24.3342 0.552822 24.8642 0.333328 25.4167 0.333328C25.9692 0.333328 26.4991 0.552822 26.8898 0.943523C27.2805 1.33422 27.5 1.86413 27.5 2.41666V31.5833C27.5 32.1359 27.2805 32.6658 26.8898 33.0565C26.4991 33.4472 25.9692 33.6667 25.4167 33.6667C24.8642 33.6667 24.3342 33.4472 23.9435 33.0565C23.5528 32.6658 23.3334 32.1359 23.3334 31.5833V18.3896ZM4.58335 8.11875V25.8812L17.9042 17L4.58335 8.11875Z" fill="white"/>
</svg>
