<svg width="36" height="38" viewBox="0 0 36 38" fill="none" xmlns="http://www.w3.org/2000/svg">
<path d="M32 26.75H35.5V30.25H0.5V26.75H4V14.5C4 10.787 5.475 7.22601 8.10051 4.60051C10.726 1.975 14.287 0.5 18 0.5C21.713 0.5 25.274 1.975 27.8995 4.60051C30.525 7.22601 32 10.787 32 14.5V26.75ZM28.5 26.75V14.5C28.5 11.7152 27.3938 9.04451 25.4246 7.07538C23.4555 5.10625 20.7848 4 18 4C15.2152 4 12.5445 5.10625 10.5754 7.07538C8.60625 9.04451 7.5 11.7152 7.5 14.5V26.75H28.5ZM12.75 33.75H23.25V37.25H12.75V33.75Z" fill="white"/>
</svg>
